<?xml version="1.0"?>
<svg xmlns="http://www.w3.org/2000/svg" xmlns:xlink="http://www.w3.org/1999/xlink" version="1.1" viewBox="0 0 224 224" width="48px" height="48px"><g fill="none" fill-rule="nonzero" stroke="none" stroke-width="1" stroke-linecap="butt" stroke-linejoin="miter" stroke-miterlimit="10" stroke-dasharray="" stroke-dashoffset="0" font-family="none" font-weight="none" font-size="none" text-anchor="none" style="mix-blend-mode: normal"><path d="M0,224v-224h224v224z" fill="none"/><g id="Layer_1"><path d="M106.88067,15.33467c3.16867,-1.778 7.07,-1.778 10.234,0c15.65667,8.78733 62.77133,35.238 78.43267,44.02533c3.16867,1.77333 5.11933,5.05867 5.11933,8.61467c0,17.57467 0,70.47133 0,88.046c0,3.556 -1.95067,6.84133 -5.11933,8.61933c-15.65667,8.78733 -62.77133,35.238 -78.43267,44.02533c-3.16867,1.778 -7.07,1.778 -10.234,0c-15.65667,-8.78733 -62.77133,-35.238 -78.43267,-44.02533c-3.164,-1.778 -5.11467,-5.05867 -5.11467,-8.61467c0,-17.57467 0,-70.47133 0,-88.046c0,-3.556 1.95067,-6.84133 5.11933,-8.61933c15.652,-8.78733 62.776,-35.238 78.428,-44.02533z" fill="#9b59b6"/><path d="M24.752,160.552c-1.24133,-1.66133 -1.41867,-3.23867 -1.41867,-5.362c0,-17.472 0,-70.06533 0,-87.542c0,-3.53733 1.946,-6.804 5.10533,-8.568c15.60067,-8.736 62.55667,-35.03267 78.15733,-43.77333c3.15933,-1.76867 7.43867,-1.73133 10.598,0.03733c15.60067,8.736 62.398,34.80867 77.99867,43.54467c1.26,0.70933 2.22133,1.56333 3.08,2.688z" fill="#b369f0"/><path d="M112,46.66667c-36.07333,0 -65.33333,29.26 -65.33333,65.33333c0,36.07333 29.26,65.33333 65.33333,65.33333c36.07333,0 65.33333,-29.26 65.33333,-65.33333c0,-36.07333 -29.26,-65.33333 -65.33333,-65.33333zM112,144.66667c-18.01333,0 -32.66667,-14.65333 -32.66667,-32.66667c0,-18.01333 14.65333,-32.66667 32.66667,-32.66667c18.01333,0 32.66667,14.65333 32.66667,32.66667c0,18.01333 -14.65333,32.66667 -32.66667,32.66667z" fill="#ffffff"/><path d="M198.26333,61.62333c2.408,2.254 2.36133,5.65133 2.36133,8.32533c0,17.71 -0.14933,68.082 0.042,85.792c0.01867,1.848 -0.59267,3.794 -1.50733,5.25933l-89.05867,-49z" fill="#a800e6"/><rect x="34" y="20" transform="scale(4.66667,4.66667)" width="1" height="8" fill="#ffffff"/><rect x="37" y="20" transform="scale(4.66667,4.66667)" width="1" height="8" fill="#ffffff"/><rect x="32" y="25" transform="scale(4.66667,4.66667)" width="8" height="1" fill="#ffffff"/><rect x="32" y="22" transform="scale(4.66667,4.66667)" width="8" height="1" fill="#ffffff"/></g></g></svg>
